<?xml version="1.0" standalone="no"?>
<!DOCTYPE svg PUBLIC "-//W3C//DTD SVG 20010904//EN"
 "http://www.w3.org/TR/2001/REC-SVG-20010904/DTD/svg10.dtd">
<svg version="1.0" xmlns="http://www.w3.org/2000/svg"
 width="250.000000pt" height="250.000000pt" viewBox="0 0 250.000000 250.000000"
 preserveAspectRatio="xMidYMid meet">
<metadata>
Created by potrace 1.11, written by Peter Selinger 2001-2013
</metadata>
<g transform="translate(0.000000,250.000000) scale(0.100000,-0.100000)"
fill="#000000" stroke="none">
<path d="M2217 1963 c-1 0 -38 -4 -82 -7 -44 -4 -100 -8 -125 -10 -25 -3 -76
-7 -115 -11 -38 -3 -90 -8 -115 -10 -25 -3 -76 -7 -115 -10 -38 -3 -90 -7
-115 -10 -64 -7 -144 -14 -225 -20 -38 -3 -88 -8 -110 -10 -43 -5 -139 -13
-340 -30 -38 -3 -90 -7 -114 -10 -24 -2 -73 -7 -110 -10 -134 -11 -295 -25
-346 -30 -16 -2 -70 -7 -120 -11 -49 -3 -100 -10 -113 -15 -29 -11 -44 -51
-38 -103 3 -22 8 -72 11 -111 3 -38 8 -88 10 -110 3 -22 7 -67 9 -100 3 -33 8
-94 12 -135 3 -41 7 -91 9 -110 2 -19 6 -71 10 -115 3 -44 8 -96 10 -115 2
-19 7 -71 10 -115 4 -44 9 -93 10 -110 2 -16 4 -44 4 -61 1 -16 10 -40 22 -52
18 -21 27 -22 97 -17 42 3 91 7 107 10 17 3 66 7 110 10 44 3 98 8 120 10 49
5 150 14 228 20 31 3 82 7 112 10 30 3 80 7 110 10 30 3 81 7 113 10 57 5 107
9 232 20 36 3 88 8 115 10 51 5 109 10 225 20 99 8 191 16 232 20 20 2 69 7
110 10 40 3 89 8 108 10 19 2 75 6 124 10 49 4 99 10 112 15 32 12 47 45 40
88 -3 20 -8 75 -11 122 -4 47 -8 101 -10 120 -8 81 -15 159 -20 225 -3 39 -7
86 -9 105 -3 19 -8 73 -11 120 -4 47 -8 101 -10 120 -1 19 -6 74 -10 121 -3
47 -8 95 -10 105 -2 11 -4 36 -4 57 -1 54 -29 78 -87 75 -25 -2 -46 -4 -47 -5z"/>
</g>
</svg>
